<svg xmlns="http://www.w3.org/2000/svg" xmlns:xlink="http://www.w3.org/1999/xlink" viewBox="0 0 1921 1030.56"><defs><style>.cls-1{isolation:isolate;}.cls-2{fill:url(#linear-gradient);}.cls-3{fill:url(#linear-gradient-2);}.cls-4{opacity:0.25;fill:url(#radial-gradient);}.cls-10,.cls-11,.cls-12,.cls-13,.cls-14,.cls-15,.cls-16,.cls-17,.cls-18,.cls-4,.cls-5,.cls-6,.cls-7,.cls-9{mix-blend-mode:screen;}.cls-5{fill:url(#radial-gradient-2);}.cls-6{fill:url(#radial-gradient-3);}.cls-7{opacity:0.2;fill:url(#radial-gradient-4);}.cls-12,.cls-8{fill:none;}.cls-9{opacity:0.15;fill:url(#radial-gradient-5);}.cls-10,.cls-13{opacity:0.5;}.cls-10{fill:url(#radial-gradient-6);}.cls-11{fill:url(#radial-gradient-7);}.cls-12{stroke:#fff;stroke-miterlimit:10;stroke-width:2px;opacity:0.03;}.cls-13{fill:url(#radial-gradient-8);}.cls-14{fill:url(#radial-gradient-9);}.cls-15{fill:url(#radial-gradient-10);}.cls-16{fill:url(#radial-gradient-11);}.cls-17{fill:url(#radial-gradient-12);}.cls-18{fill:url(#radial-gradient-13);}</style><linearGradient id="linear-gradient" x1="1178.44" y1="82.14" x2="1920.5" y2="82.14" gradientUnits="userSpaceOnUse"><stop offset="0" stop-color="#cce0f4"/><stop offset="0.26" stop-color="#cadef3"/><stop offset="0.4" stop-color="#c1d9ef"/><stop offset="0.52" stop-color="#b4d0e9"/><stop offset="0.62" stop-color="#a0c3e0"/><stop offset="0.72" stop-color="#86b2d4"/><stop offset="0.8" stop-color="#679ec6"/><stop offset="0.88" stop-color="#4185b5"/><stop offset="0.96" stop-color="#176aa1"/><stop offset="0.99" stop-color="#005b97"/></linearGradient><linearGradient id="linear-gradient-2" x1="1800.54" y1="42.23" x2="188.43" y2="1077.59" gradientUnits="userSpaceOnUse"><stop offset="0" stop-color="#65f"/><stop offset="0.25" stop-color="#7d4ccb"/><stop offset="0.83" stop-color="#b63649"/><stop offset="0.99" stop-color="#c72f23"/></linearGradient><radialGradient id="radial-gradient" cx="185.17" cy="350.25" r="184.75" gradientTransform="translate(0.07 34.15) scale(0.84 0.79)" gradientUnits="userSpaceOnUse"><stop offset="0.1"/><stop offset="0.15" stop-color="#191407"/><stop offset="0.21" stop-color="#2f260d"/><stop offset="0.27" stop-color="#403312"/><stop offset="0.36" stop-color="#4b3d16"/><stop offset="0.47" stop-color="#524217"/><stop offset="0.8" stop-color="#544418"/><stop offset="1"/></radialGradient><radialGradient id="radial-gradient-2" cx="931.9" cy="820.11" r="6.16" gradientTransform="translate(0.07 34.15) scale(0.84 0.79)" gradientUnits="userSpaceOnUse"><stop offset="0" stop-color="#cae095"/><stop offset="0.06" stop-color="#a8ba7c"/><stop offset="0.14" stop-color="#818f5f"/><stop offset="0.22" stop-color="#5e6845"/><stop offset="0.31" stop-color="#414830"/><stop offset="0.4" stop-color="#292e1e"/><stop offset="0.5" stop-color="#171911"/><stop offset="0.62" stop-color="#0a0b07"/><stop offset="0.76" stop-color="#020302"/><stop offset="1"/></radialGradient><radialGradient id="radial-gradient-3" cx="1390.28" cy="1108.54" r="6.16" xlink:href="#radial-gradient-2"/><radialGradient id="radial-gradient-4" cx="1342.07" cy="1078.21" r="46.19" gradientTransform="translate(0.07 34.15) scale(0.84 0.79)" gradientUnits="userSpaceOnUse"><stop offset="0.05"/><stop offset="0.09" stop-color="#030904"/><stop offset="0.3" stop-color="#133315"/><stop offset="0.48" stop-color="#1f5222"/><stop offset="0.64" stop-color="#256529"/><stop offset="0.75" stop-color="#286c2c"/><stop offset="0.79" stop-color="#4c6c19"/><stop offset="0.84" stop-color="#6e6b07"/><stop offset="0.86" stop-color="#7b6b00"/><stop offset="0.89" stop-color="#776800"/><stop offset="0.91" stop-color="#6d5e00"/><stop offset="0.94" stop-color="#5a4f00"/><stop offset="0.96" stop-color="#413800"/><stop offset="0.98" stop-color="#201c00"/><stop offset="1"/></radialGradient><radialGradient id="radial-gradient-5" cx="426.19" cy="501.91" r="123.16" gradientTransform="translate(0.07 34.15) scale(0.84 0.79)" gradientUnits="userSpaceOnUse"><stop offset="0" stop-color="#230000"/><stop offset="0.73" stop-color="#93432a"/><stop offset="1" stop-color="#230000"/></radialGradient><radialGradient id="radial-gradient-6" cx="426.19" cy="501.91" r="61.58" gradientTransform="translate(0.07 34.15) scale(0.84 0.79)" gradientUnits="userSpaceOnUse"><stop offset="0.15" stop-color="#fff"/><stop offset="0.21" stop-color="#e2d1d2"/><stop offset="0.29" stop-color="#bf9a9c"/><stop offset="0.36" stop-color="#a67276"/><stop offset="0.42" stop-color="#975a5e"/><stop offset="0.45" stop-color="#915155"/><stop offset="0.56" stop-color="#6c3638"/><stop offset="0.68" stop-color="#44191a"/><stop offset="0.79" stop-color="#2c0707"/><stop offset="0.85" stop-color="#230000"/><stop offset="0.86" stop-color="#270201"/><stop offset="0.86" stop-color="#340805"/><stop offset="0.87" stop-color="#48120b"/><stop offset="0.88" stop-color="#652114"/><stop offset="0.89" stop-color="#8b331f"/><stop offset="0.9" stop-color="#b8492d"/><stop offset="0.9" stop-color="#d65836"/><stop offset="0.9" stop-color="#c95232"/><stop offset="0.91" stop-color="#9d3c25"/><stop offset="0.93" stop-color="#782a1a"/><stop offset="0.94" stop-color="#591b10"/><stop offset="0.95" stop-color="#410f09"/><stop offset="0.97" stop-color="#300604"/><stop offset="0.98" stop-color="#260201"/><stop offset="1" stop-color="#230000"/></radialGradient><radialGradient id="radial-gradient-7" cx="426.19" cy="501.91" r="51.32" gradientTransform="translate(0.07 34.15) scale(0.84 0.79)" gradientUnits="userSpaceOnUse"><stop offset="0.15" stop-color="#fff"/><stop offset="0.28" stop-color="#c2c2c2"/><stop offset="0.43" stop-color="#888"/><stop offset="0.56" stop-color="#575757"/><stop offset="0.69" stop-color="#313131"/><stop offset="0.81" stop-color="#161616"/><stop offset="0.92" stop-color="#060606"/><stop offset="1"/></radialGradient><radialGradient id="radial-gradient-8" cx="1390.28" cy="1108.54" r="92.37" gradientTransform="translate(0.07 34.15) scale(0.84 0.79)" gradientUnits="userSpaceOnUse"><stop offset="0.64"/><stop offset="0.72" stop-color="#000200"/><stop offset="0.75" stop-color="#000902"/><stop offset="0.77" stop-color="#001405"/><stop offset="0.78" stop-color="#002509"/><stop offset="0.8" stop-color="#003b0e"/><stop offset="0.8" stop-color="#004510"/><stop offset="0.82" stop-color="#182809"/><stop offset="0.83" stop-color="#2b1204"/><stop offset="0.85" stop-color="#360501"/><stop offset="0.86" stop-color="#3a0000"/><stop offset="0.87" stop-color="#250000"/><stop offset="0.89" stop-color="#140000"/><stop offset="0.9" stop-color="#090000"/><stop offset="0.93" stop-color="#020000"/><stop offset="1"/></radialGradient><radialGradient id="radial-gradient-9" cx="471.82" cy="530.62" r="28.16" gradientTransform="translate(0.07 34.15) scale(0.84 0.79)" gradientUnits="userSpaceOnUse"><stop offset="0.1" stop-color="#25365b"/><stop offset="0.26" stop-color="#19243d"/><stop offset="0.44" stop-color="#0e1422"/><stop offset="0.62" stop-color="#06090f"/><stop offset="0.8" stop-color="#020204"/><stop offset="1"/></radialGradient><radialGradient id="radial-gradient-10" cx="1267.14" cy="1031.06" r="15.46" gradientTransform="translate(0.07 34.15) scale(0.84 0.79)" gradientUnits="userSpaceOnUse"><stop offset="0.1"/><stop offset="0.26" stop-color="#0c121e"/><stop offset="0.44" stop-color="#172239"/><stop offset="0.62" stop-color="#1f2d4c"/><stop offset="0.8" stop-color="#233457"/><stop offset="1" stop-color="#25365b"/></radialGradient><radialGradient id="radial-gradient-11" cx="619.48" cy="623.53" r="30.28" gradientTransform="translate(0.07 34.15) scale(0.84 0.79)" gradientUnits="userSpaceOnUse"><stop offset="0.1" stop-color="#05305c"/><stop offset="0.26" stop-color="#03203d"/><stop offset="0.44" stop-color="#021222"/><stop offset="0.62" stop-color="#01080f"/><stop offset="0.8" stop-color="#000204"/><stop offset="1"/></radialGradient><radialGradient id="radial-gradient-12" cx="675.05" cy="658.5" r="28.67" gradientTransform="translate(0.07 34.15) scale(0.84 0.79)" gradientUnits="userSpaceOnUse"><stop offset="0.1" stop-color="#64767d"/><stop offset="0.21" stop-color="#4c595f"/><stop offset="0.36" stop-color="#31393d"/><stop offset="0.51" stop-color="#1b2022"/><stop offset="0.67" stop-color="#0c0e0f"/><stop offset="0.83" stop-color="#030404"/><stop offset="1"/></radialGradient><radialGradient id="radial-gradient-13" cx="1159.42" cy="963.28" r="24.2" gradientTransform="translate(0.07 34.15) scale(0.84 0.79)" gradientUnits="userSpaceOnUse"><stop offset="0.1"/><stop offset="0.31" stop-color="#001919"/><stop offset="0.53" stop-color="#002c2b"/><stop offset="0.76" stop-color="#003736"/><stop offset="1" stop-color="#003b3a"/></radialGradient></defs><g class="cls-1"><g id="Layer_2" data-name="Layer 2"><g id="Layer_1-2" data-name="Layer 1"><path class="cls-2" d="M1178.44,0c0,9,.06,23.07.06,44.67,0,96,116.58,119.62,116.58,119.62H1920.5V0Z"/><path class="cls-3" d="M151.07,978.29a391.69,391.69,0,0,1,118.57,18.78c33.22,10.69,65.24,35.32,101.45,33.38,35.54-1.91,65.74-27.48,99.53-36.77A424,424,0,0,1,582.9,978.29,440.76,440.76,0,0,1,696.31,993c29.76,7.93,54.44,29.07,86.28,29.59,33.52.55,59.78-21,90.9-29.31a427.69,427.69,0,0,1,110.75-15c36.45,0,74.61,4.1,109.61,14.68,29.17,8.82,56,28,87.17,29.22,36.32,1.44,66.9-21.87,100.68-31.13,33.2-9.1,69.57-12.77,103.88-12.77,35,0,69.67,5.06,103.51,13.74,34.33,8.8,64.35,29.87,101.05,28.55,35.29-1.26,65.7-21.07,98.86-30.59,30.81-8.85,66-11.7,97.93-11.7a438.73,438.73,0,0,1,133.16,20.48l.91-833.48H0v839.62A436.91,436.91,0,0,1,151.07,978.29Z"/><ellipse class="cls-4" cx="156.42" cy="312.13" rx="156" ry="146.63"/><ellipse class="cls-5" cx="786.95" cy="685.05" rx="5.2" ry="4.89"/><ellipse class="cls-6" cx="1174" cy="913.97" rx="5.2" ry="4.89"/><ellipse class="cls-7" cx="1133.3" cy="889.9" rx="39" ry="36.66"/><line class="cls-8" x1="359.94" y1="432.5" x2="1174" y2="913.97"/><ellipse class="cls-9" cx="359.94" cy="432.5" rx="104" ry="97.75"/><ellipse class="cls-10" cx="359.94" cy="432.5" rx="52" ry="48.88"/><ellipse class="cls-11" cx="359.94" cy="432.5" rx="43.33" ry="40.73"/><polyline class="cls-12" points="359.94 432.5 347.46 480.53 359.94 432.5 372.42 384.46 359.94 432.5 308.83 420.77 359.94 432.5 411.04 444.23 359.94 432.5 312.92 511.97 359.94 432.5 406.95 353.03 359.94 432.5 275.39 388.3 359.94 432.5 444.48 476.69 359.94 432.5 118.79 480.15 359.94 432.5 601.09 384.84 359.94 432.5 309.24 205.83 359.94 432.5 410.64 659.16 359.94 432.5 336.63 438.99 359.94 432.5 383.25 426 359.94 432.5 353.03 410.59 359.94 432.5 366.85 454.41 359.94 432.5 306.17 555.03 359.94 432.5 413.7 309.96 359.94 432.5 229.57 381.96 359.94 432.5 490.3 483.04 359.94 432.5 148.13 544.07 359.94 432.5 571.74 320.92 359.94 432.5 241.23 233.41 359.94 432.5 478.64 631.58 359.94 432.5 270.43 464.32 359.94 432.5 449.44 400.68 359.94 432.5 326.08 348.37 359.94 432.5 393.79 516.63 359.94 432.5 314.25 586.55 359.94 432.5 405.63 278.45 359.94 432.5 196.04 389.55 359.94 432.5 523.83 475.44 359.94 432.5 241.33 427.5 359.94 432.5 478.55 437.49 359.94 432.5 365.25 321.01 359.94 432.5 354.62 543.98 359.94 432.5 357.77 447.44 359.94 432.5 362.11 417.56 359.94 432.5 344.04 430.46 359.94 432.5 375.83 434.54 359.94 432.5 311.21 445.08 359.94 432.5 408.67 419.91 359.94 432.5 346.55 386.69 359.94 432.5 373.33 478.3 359.94 432.5 353.72 442.55 359.94 432.5 366.16 422.45 359.94 432.5 349.25 426.65 359.94 432.5 370.63 438.34 359.94 432.5 192.5 536.21 359.94 432.5 527.38 328.79 359.94 432.5 249.6 275.11 359.94 432.5 470.27 589.88 359.94 432.5 147.38 460.35 359.94 432.5 572.5 404.64 359.94 432.5 330.3 232.7 359.94 432.5 389.57 632.29 359.94 432.5 182.48 481.9 359.94 432.5 537.39 383.09 359.94 432.5 307.38 265.7 359.94 432.5 412.5 599.3"/><ellipse class="cls-13" cx="1174" cy="913.97" rx="78" ry="73.31"/><ellipse class="cls-14" cx="398.46" cy="455.28" rx="23.78" ry="22.35"/><ellipse class="cls-15" cx="1070.03" cy="852.48" rx="13.05" ry="12.27"/><ellipse class="cls-16" cx="523.15" cy="529.03" rx="25.57" ry="24.03"/><ellipse class="cls-17" cx="570.07" cy="556.78" rx="24.21" ry="22.76"/><ellipse class="cls-18" cx="979.07" cy="798.68" rx="20.43" ry="19.2"/></g></g></g></svg>