<?xml version="1.0" encoding="utf-8"?>
<!-- Generator: Adobe Illustrator 24.1.2, SVG Export Plug-In . SVG Version: 6.00 Build 0)  -->
<svg version="1.1" id="Layer_1" xmlns="http://www.w3.org/2000/svg" xmlns:xlink="http://www.w3.org/1999/xlink" x="0px" y="0px"
	 viewBox="0 0 1920 1080" style="enable-background:new 0 0 1920 1080;" xml:space="preserve">
<style type="text/css">
	.st0{fill:url(#SVGID_1_);}
	.st1{fill:url(#SVGID_2_);}
	.st2{opacity:0.25;fill:url(#SVGID_3_);}
	.st3{fill:url(#SVGID_4_);}
	.st4{fill:url(#SVGID_5_);}
	.st5{opacity:0.2;fill:url(#SVGID_6_);}
	.st6{fill:none;}
	.st7{opacity:0.15;fill:url(#SVGID_7_);}
	.st8{opacity:0.5;fill:url(#SVGID_8_);}
	.st9{fill:url(#SVGID_9_);}
	.st10{opacity:3.000000e-02;fill:none;stroke:#FFFFFF;stroke-width:2;stroke-miterlimit:10;}
	.st11{opacity:0.5;fill:url(#SVGID_10_);}
	.st12{fill:url(#SVGID_11_);}
	.st13{fill:url(#SVGID_12_);}
	.st14{fill:url(#SVGID_13_);}
	.st15{fill:url(#SVGID_14_);}
	.st16{fill:url(#SVGID_15_);}
</style>
<linearGradient id="SVGID_1_" gradientUnits="userSpaceOnUse" x1="1178.4358" y1="81.8559" x2="1920.5" y2="81.8559">
	<stop  offset="0" style="stop-color:#CCE0F4"/>
	<stop  offset="0.2572" style="stop-color:#CADEF3"/>
	<stop  offset="0.4029" style="stop-color:#C1D9EF"/>
	<stop  offset="0.5208" style="stop-color:#B4D0E9"/>
	<stop  offset="0.6237" style="stop-color:#A0C3E0"/>
	<stop  offset="0.7171" style="stop-color:#86B2D4"/>
	<stop  offset="0.8033" style="stop-color:#679EC6"/>
	<stop  offset="0.8842" style="stop-color:#4185B5"/>
	<stop  offset="0.9588" style="stop-color:#176AA1"/>
	<stop  offset="0.9944" style="stop-color:#005B97"/>
</linearGradient>
<path class="st0" d="M1178.4-0.3c0,8.9,0.1,23.1,0.1,44.7c0,96,116.6,119.6,116.6,119.6h625.4V-0.3H1178.4z"/>
<linearGradient id="SVGID_2_" gradientUnits="userSpaceOnUse" x1="1800.5402" y1="41.9451" x2="188.4252" y2="1077.3019">
	<stop  offset="0" style="stop-color:#6655FF"/>
	<stop  offset="0.2519" style="stop-color:#7D4CCB"/>
	<stop  offset="0.8255" style="stop-color:#B63649"/>
	<stop  offset="0.9907" style="stop-color:#C72F23"/>
</linearGradient>
<path class="st1" d="M151.1,978c39.8,0,80.7,6.6,118.6,18.8c33.2,10.7,65.2,35.3,101.5,33.4c35.5-1.9,65.7-27.5,99.5-36.8
	c36.6-10,74.3-15.4,112.3-15.4c38.2,0,76.5,4.9,113.4,14.7c29.8,7.9,54.4,29.1,86.3,29.6c33.5,0.5,59.8-21,90.9-29.3
	c36.1-9.7,73.3-15,110.7-15c36.4,0,74.6,4.1,109.6,14.7c29.2,8.8,56,28,87.2,29.2c36.3,1.4,66.9-21.9,100.7-31.1
	c33.2-9.1,69.6-12.8,103.9-12.8c35,0,69.7,5.1,103.5,13.7c34.3,8.8,64.3,29.9,101,28.6c35.3-1.3,65.7-21.1,98.9-30.6
	c30.8-8.9,66-11.7,97.9-11.7c46.7,0,91.5,7.2,133.2,20.5L1921,165H0v839.6C46.6,987.5,97.6,978,151.1,978z"/>
<g>
	
		<radialGradient id="SVGID_3_" cx="185.1702" cy="349.9575" r="184.7466" gradientTransform="matrix(0.8444 0 0 0.7937 6.591647e-02 34.0865)" gradientUnits="userSpaceOnUse">
		<stop  offset="0.1" style="stop-color:#000000"/>
		<stop  offset="0.1478" style="stop-color:#191407"/>
		<stop  offset="0.2051" style="stop-color:#2F260D"/>
		<stop  offset="0.2728" style="stop-color:#403312"/>
		<stop  offset="0.3565" style="stop-color:#4B3D16"/>
		<stop  offset="0.474" style="stop-color:#524217"/>
		<stop  offset="0.8" style="stop-color:#544418"/>
		<stop  offset="1" style="stop-color:#000000"/>
	</radialGradient>
	<ellipse class="st2" cx="156.4" cy="311.8" rx="156" ry="146.6"/>
	
		<radialGradient id="SVGID_4_" cx="931.897" cy="819.8258" r="6.1582" gradientTransform="matrix(0.8444 0 0 0.7937 6.591647e-02 34.0865)" gradientUnits="userSpaceOnUse">
		<stop  offset="0" style="stop-color:#CAE095"/>
		<stop  offset="5.818057e-02" style="stop-color:#A8BA7C"/>
		<stop  offset="0.1353" style="stop-color:#818F5F"/>
		<stop  offset="0.2184" style="stop-color:#5E6845"/>
		<stop  offset="0.3066" style="stop-color:#414830"/>
		<stop  offset="0.4013" style="stop-color:#292E1E"/>
		<stop  offset="0.5049" style="stop-color:#171911"/>
		<stop  offset="0.622" style="stop-color:#0A0B07"/>
		<stop  offset="0.764" style="stop-color:#020302"/>
		<stop  offset="1" style="stop-color:#000000"/>
	</radialGradient>
	<ellipse class="st3" cx="787" cy="684.8" rx="5.2" ry="4.9"/>
	
		<radialGradient id="SVGID_5_" cx="1390.2766" cy="1108.2554" r="6.1582" gradientTransform="matrix(0.8444 0 0 0.7937 6.591647e-02 34.0865)" gradientUnits="userSpaceOnUse">
		<stop  offset="0" style="stop-color:#CAE095"/>
		<stop  offset="5.818057e-02" style="stop-color:#A8BA7C"/>
		<stop  offset="0.1353" style="stop-color:#818F5F"/>
		<stop  offset="0.2184" style="stop-color:#5E6845"/>
		<stop  offset="0.3066" style="stop-color:#414830"/>
		<stop  offset="0.4013" style="stop-color:#292E1E"/>
		<stop  offset="0.5049" style="stop-color:#171911"/>
		<stop  offset="0.622" style="stop-color:#0A0B07"/>
		<stop  offset="0.764" style="stop-color:#020302"/>
		<stop  offset="1" style="stop-color:#000000"/>
	</radialGradient>
	<ellipse class="st4" cx="1174" cy="913.7" rx="5.2" ry="4.9"/>
	
		<radialGradient id="SVGID_6_" cx="1342.0724" cy="1077.9235" r="46.1866" gradientTransform="matrix(0.8444 0 0 0.7937 6.591647e-02 34.0865)" gradientUnits="userSpaceOnUse">
		<stop  offset="5.000000e-02" style="stop-color:#000000"/>
		<stop  offset="8.836499e-02" style="stop-color:#030904"/>
		<stop  offset="0.2952" style="stop-color:#133315"/>
		<stop  offset="0.4817" style="stop-color:#1F5222"/>
		<stop  offset="0.6396" style="stop-color:#256529"/>
		<stop  offset="0.75" style="stop-color:#286C2C"/>
		<stop  offset="0.7903" style="stop-color:#4C6C19"/>
		<stop  offset="0.8355" style="stop-color:#6E6B07"/>
		<stop  offset="0.86" style="stop-color:#7B6B00"/>
		<stop  offset="0.8879" style="stop-color:#776800"/>
		<stop  offset="0.9129" style="stop-color:#6D5E00"/>
		<stop  offset="0.9366" style="stop-color:#5A4F00"/>
		<stop  offset="0.9597" style="stop-color:#413800"/>
		<stop  offset="0.9821" style="stop-color:#201C00"/>
		<stop  offset="1" style="stop-color:#000000"/>
	</radialGradient>
	<ellipse class="st5" cx="1133.3" cy="889.6" rx="39" ry="36.7"/>
	<line class="st6" x1="359.9" y1="432.2" x2="1174" y2="913.7"/>
	
		<radialGradient id="SVGID_7_" cx="426.1915" cy="501.617" r="123.1644" gradientTransform="matrix(0.8444 0 0 0.7937 6.591647e-02 34.0865)" gradientUnits="userSpaceOnUse">
		<stop  offset="0" style="stop-color:#230000"/>
		<stop  offset="0.73" style="stop-color:#93432A"/>
		<stop  offset="1" style="stop-color:#230000"/>
	</radialGradient>
	<ellipse class="st7" cx="359.9" cy="432.2" rx="104" ry="97.8"/>
	
		<radialGradient id="SVGID_8_" cx="426.1915" cy="501.617" r="61.5822" gradientTransform="matrix(0.8444 0 0 0.7937 6.591647e-02 34.0865)" gradientUnits="userSpaceOnUse">
		<stop  offset="0.15" style="stop-color:#FFFFFF"/>
		<stop  offset="0.2114" style="stop-color:#E2D1D2"/>
		<stop  offset="0.2918" style="stop-color:#BF9A9C"/>
		<stop  offset="0.3613" style="stop-color:#A67276"/>
		<stop  offset="0.4163" style="stop-color:#975A5E"/>
		<stop  offset="0.45" style="stop-color:#915155"/>
		<stop  offset="0.5553" style="stop-color:#6C3638"/>
		<stop  offset="0.6842" style="stop-color:#44191A"/>
		<stop  offset="0.787" style="stop-color:#2C0707"/>
		<stop  offset="0.85" style="stop-color:#230000"/>
		<stop  offset="0.8572" style="stop-color:#270201"/>
		<stop  offset="0.8647" style="stop-color:#340805"/>
		<stop  offset="0.8723" style="stop-color:#48120B"/>
		<stop  offset="0.88" style="stop-color:#652114"/>
		<stop  offset="0.8878" style="stop-color:#8B331F"/>
		<stop  offset="0.8955" style="stop-color:#B8492D"/>
		<stop  offset="0.9" style="stop-color:#D65836"/>
		<stop  offset="0.903" style="stop-color:#C95232"/>
		<stop  offset="0.9146" style="stop-color:#9D3C25"/>
		<stop  offset="0.9267" style="stop-color:#782A1A"/>
		<stop  offset="0.9392" style="stop-color:#591B10"/>
		<stop  offset="0.9523" style="stop-color:#410F09"/>
		<stop  offset="0.9661" style="stop-color:#300604"/>
		<stop  offset="0.9812" style="stop-color:#260201"/>
		<stop  offset="1" style="stop-color:#230000"/>
	</radialGradient>
	<ellipse class="st8" cx="359.9" cy="432.2" rx="52" ry="48.9"/>
	
		<radialGradient id="SVGID_9_" cx="426.1915" cy="501.617" r="51.3185" gradientTransform="matrix(0.8444 0 0 0.7937 6.591647e-02 34.0865)" gradientUnits="userSpaceOnUse">
		<stop  offset="0.15" style="stop-color:#FFFFFF"/>
		<stop  offset="0.2824" style="stop-color:#C2C2C2"/>
		<stop  offset="0.4253" style="stop-color:#888888"/>
		<stop  offset="0.5636" style="stop-color:#575757"/>
		<stop  offset="0.6936" style="stop-color:#313131"/>
		<stop  offset="0.8134" style="stop-color:#161616"/>
		<stop  offset="0.9192" style="stop-color:#060606"/>
		<stop  offset="1" style="stop-color:#000000"/>
	</radialGradient>
	<ellipse class="st9" cx="359.9" cy="432.2" rx="43.3" ry="40.7"/>
	<polyline class="st10" points="359.9,432.2 347.5,480.2 359.9,432.2 372.4,384.2 359.9,432.2 308.8,420.5 359.9,432.2 411,443.9 
		359.9,432.2 312.9,511.7 359.9,432.2 407,352.7 359.9,432.2 275.4,388 359.9,432.2 444.5,476.4 359.9,432.2 118.8,479.9 
		359.9,432.2 601.1,384.6 359.9,432.2 309.2,205.5 359.9,432.2 410.6,658.9 359.9,432.2 336.6,438.7 359.9,432.2 383.2,425.7 
		359.9,432.2 353,410.3 359.9,432.2 366.8,454.1 359.9,432.2 306.2,554.7 359.9,432.2 413.7,309.7 359.9,432.2 229.6,381.7 
		359.9,432.2 490.3,482.7 359.9,432.2 148.1,543.8 359.9,432.2 571.7,320.6 359.9,432.2 241.2,233.1 359.9,432.2 478.6,631.3 
		359.9,432.2 270.4,464 359.9,432.2 449.4,400.4 359.9,432.2 326.1,348.1 359.9,432.2 393.8,516.3 359.9,432.2 314.2,586.3 
		359.9,432.2 405.6,278.2 359.9,432.2 196,389.3 359.9,432.2 523.8,475.2 359.9,432.2 241.3,427.2 359.9,432.2 478.5,437.2 
		359.9,432.2 365.3,320.7 359.9,432.2 354.6,543.7 359.9,432.2 357.8,447.2 359.9,432.2 362.1,417.3 359.9,432.2 344,430.2 
		359.9,432.2 375.8,434.2 359.9,432.2 311.2,444.8 359.9,432.2 408.7,419.6 359.9,432.2 346.5,386.4 359.9,432.2 373.3,478 
		359.9,432.2 353.7,442.3 359.9,432.2 366.2,422.2 359.9,432.2 349.2,426.4 359.9,432.2 370.6,438.1 359.9,432.2 192.5,535.9 
		359.9,432.2 527.4,328.5 359.9,432.2 249.6,274.8 359.9,432.2 470.3,589.6 359.9,432.2 147.4,460.1 359.9,432.2 572.5,404.4 
		359.9,432.2 330.3,232.4 359.9,432.2 389.6,632 359.9,432.2 182.5,481.6 359.9,432.2 537.4,382.8 359.9,432.2 307.4,265.4 
		359.9,432.2 412.5,599 	"/>
	
		<radialGradient id="SVGID_10_" cx="1390.2766" cy="1108.2554" r="92.3733" gradientTransform="matrix(0.8444 0 0 0.7937 6.591647e-02 34.0865)" gradientUnits="userSpaceOnUse">
		<stop  offset="0.64" style="stop-color:#000000"/>
		<stop  offset="0.7175" style="stop-color:#000200"/>
		<stop  offset="0.7455" style="stop-color:#000902"/>
		<stop  offset="0.7654" style="stop-color:#001405"/>
		<stop  offset="0.7814" style="stop-color:#002509"/>
		<stop  offset="0.7951" style="stop-color:#003B0E"/>
		<stop  offset="0.8" style="stop-color:#004510"/>
		<stop  offset="0.8154" style="stop-color:#182809"/>
		<stop  offset="0.8312" style="stop-color:#2B1204"/>
		<stop  offset="0.8464" style="stop-color:#360501"/>
		<stop  offset="0.86" style="stop-color:#3A0000"/>
		<stop  offset="0.8719" style="stop-color:#250000"/>
		<stop  offset="0.8864" style="stop-color:#140000"/>
		<stop  offset="0.9045" style="stop-color:#090000"/>
		<stop  offset="0.9298" style="stop-color:#020000"/>
		<stop  offset="1" style="stop-color:#000000"/>
	</radialGradient>
	<ellipse class="st11" cx="1174" cy="913.7" rx="78" ry="73.3"/>
	
		<radialGradient id="SVGID_11_" cx="471.8183" cy="530.3271" r="28.1571" gradientTransform="matrix(0.8444 0 0 0.7937 6.591647e-02 34.0865)" gradientUnits="userSpaceOnUse">
		<stop  offset="0.1" style="stop-color:#25365B"/>
		<stop  offset="0.2582" style="stop-color:#19243D"/>
		<stop  offset="0.4352" style="stop-color:#0E1422"/>
		<stop  offset="0.6162" style="stop-color:#06090F"/>
		<stop  offset="0.8021" style="stop-color:#020204"/>
		<stop  offset="1" style="stop-color:#000000"/>
	</radialGradient>
	<ellipse class="st12" cx="398.5" cy="455" rx="23.8" ry="22.3"/>
	
		<radialGradient id="SVGID_12_" cx="1267.1438" cy="1030.7755" r="15.4599" gradientTransform="matrix(0.8444 0 0 0.7937 6.591647e-02 34.0865)" gradientUnits="userSpaceOnUse">
		<stop  offset="0.1" style="stop-color:#000000"/>
		<stop  offset="0.2582" style="stop-color:#0C121E"/>
		<stop  offset="0.4352" style="stop-color:#172239"/>
		<stop  offset="0.6162" style="stop-color:#1F2D4C"/>
		<stop  offset="0.8021" style="stop-color:#233457"/>
		<stop  offset="1" style="stop-color:#25365B"/>
	</radialGradient>
	<ellipse class="st13" cx="1070" cy="852.2" rx="13.1" ry="12.3"/>
	
		<radialGradient id="SVGID_13_" cx="619.4822" cy="623.2428" r="30.2827" gradientTransform="matrix(0.8444 0 0 0.7937 6.591647e-02 34.0865)" gradientUnits="userSpaceOnUse">
		<stop  offset="0.1" style="stop-color:#05305C"/>
		<stop  offset="0.2621" style="stop-color:#03203D"/>
		<stop  offset="0.4381" style="stop-color:#021222"/>
		<stop  offset="0.6182" style="stop-color:#01080F"/>
		<stop  offset="0.8031" style="stop-color:#000204"/>
		<stop  offset="1" style="stop-color:#000000"/>
	</radialGradient>
	<ellipse class="st14" cx="523.2" cy="528.7" rx="25.6" ry="24"/>
	
		<radialGradient id="SVGID_14_" cx="675.0538" cy="658.2105" r="28.6721" gradientTransform="matrix(0.8444 0 0 0.7937 6.591647e-02 34.0865)" gradientUnits="userSpaceOnUse">
		<stop  offset="0.1" style="stop-color:#64767D"/>
		<stop  offset="0.2109" style="stop-color:#4C595F"/>
		<stop  offset="0.3608" style="stop-color:#31393D"/>
		<stop  offset="0.514" style="stop-color:#1B2022"/>
		<stop  offset="0.6698" style="stop-color:#0C0E0F"/>
		<stop  offset="0.8297" style="stop-color:#030404"/>
		<stop  offset="1" style="stop-color:#000000"/>
	</radialGradient>
	<ellipse class="st15" cx="570.1" cy="556.5" rx="24.2" ry="22.8"/>
	
		<radialGradient id="SVGID_15_" cx="1159.4209" cy="962.9923" r="24.1954" gradientTransform="matrix(0.8444 0 0 0.7937 6.591647e-02 34.0865)" gradientUnits="userSpaceOnUse">
		<stop  offset="0.1" style="stop-color:#000000"/>
		<stop  offset="0.3073" style="stop-color:#001919"/>
		<stop  offset="0.5288" style="stop-color:#002C2B"/>
		<stop  offset="0.7569" style="stop-color:#003736"/>
		<stop  offset="1" style="stop-color:#003B3A"/>
	</radialGradient>
	<ellipse class="st16" cx="979.1" cy="798.4" rx="20.4" ry="19.2"/>
</g>
</svg>
